/* XPM */
static char *_584201089059[] = {
/* columns rows colors chars-per-pixel */
"64 64 30 1 ",
"  c #CC8400",
". c #CF8900",
"X c #D38600",
"o c #D58B00",
"O c #DE8A00",
"+ c #D79100",
"@ c #DD9400",
"# c #DC9B00",
"$ c #E18E00",
"% c #E49400",
"& c #E99300",
"* c #E69900",
"= c #E99B00",
"- c #F09D00",
"; c #E5A300",
": c #EDA300",
"> c #E6A900",
", c #ECAB00",
"< c #F0A600",
"1 c #F3AC00",
"2 c #EEB000",
"3 c #F6B200",
"4 c #F9B500",
"5 c #F7B900",
"6 c #FDBC00",
"7 c #FEC200",
"8 c #FECC00",
"9 c #FFD300",
"0 c #FFD800",
"q c None",
/* pixels */
"qqqqqqqqqqqqqqqqqqqqqqqqqqqqqqqqqqqqqqqqqqqqqqqqqqqqqqqqqqqqqqqq",
"qqqqqqqqqqqqqqqqqqqqqqqqq77779009088777qqqqqqqqqqqqqqqqqqqqqqqqq",
"qqqqqqqqqqqqqqqqqqqqq6770000888888880000776qqqqqqqqqqqqqqqqqqqqq",
"qqqqqqqqqqqqqqqqqqq68009776566466466566890087qqqqqqqqqqqqqqqqqqq",
"qqqqqqqqqqqqqqqqq6908756655411<::<1134664678087qqqqqqqqqqqqqqqqq",
"qqqqqqqqqqqqqqq680866644:=%&==::::==%%=:456478086qqqqqqqqqqqqqqq",
"qqqqqqqqqqqqqq7086454:%%:14667776776641=%=:3546807qqqqqqqqqqqqqq",
"qqqqqqqqqqqq4806464:%=36777667667676777763=%:4447984qqqqqqqqqqqq",
"qqqqqqqqqqq598544<%=467776677667677676776764=%<445805qqqqqqqqqqq",
"qqqqqqqqqq597443=%4676666766676666666666676764==453796qqqqqqqqqq",
"qqqqqqqqq507451%<666666666666666666666666666666:%<54795qqqqqqqqq",
"qqqqqqqq49634:%1666666666666666666666666666666661%:43503qqqqqqqq",
"qqqqqqq38614:%466646644666566467733665646666466664%:43683qqqqqqq",
"qqqqqqq8744:%46666666666666466689236666666664646664%:4378qqqqqqq",
"qqqqqq77331%4644644646466646546772,54654464466664644%,3376qqqqqq",
"qqqqq28331%144464465446444444466732444464546444444641%13383qqqqq",
"qqqqq8511=<644444644446444667787787764344454444464444<&3158qqqqq",
"qqqq4713:&44444444444444689000077000098434454444444444=:3374qqqq",
"qqqq7311&344444444444468008776776677780073,444444444443&<337qqqq",
"qqq3713=-4334443443436897767766667677668083144444444444-=1163qqq",
"qqq6311%14433334344358876775,#3672;37676707,133434333331%1,37qqq",
"qq1711=:333333333334797667,#>15772>,36676705,33341333333==1171qq",
"qq3311%1333113143114876775#133577,>3,4767677:133143313331&1133qq",
"qq611:*3131331411335767662;331477,,131767777,111311331133=:116qq",
"q1611=:1331314133116767773>111677,;111477772#133313113113:=1<61q",
"q13:<=<1111111111114766677>1115672:313,,23>#,311111313111<*1<41q",
"q111:=113111111111147767783,,1477,>1111:;;=111111111111111=::11q",
"q3<,==111111111111116676789631467,;11111111111111111111111==,13q",
"q4<1==1<<111<111<11:3767678097777,=111111<11<111111<1<1111==<<4q",
"<3:<=:111<1<1<:11<:1,57676678007785411,:,1<111<<1<1<,1<1<1:=<:4:",
":<::*=1<<1<1<11<<1<1<,377677777770008761,:<1<<<1<1<<<<111<:*:<<:",
"<::<=:,<<<<<<::1<<<<<:=>377676677778900971:<<<1<<<<<1<::1::=:::<",
"<:::*:<<<<<<<<<<<<<<<<:,*#,5666767667679083:::1:<<<<<<<<<<==::::",
"=::==::<:<:<:<:<<::<<:<<,,***,56767767667093=,:::<<:<::<<::*::<=",
":<::==::::<:::<:::::::::::::,*3773,576766688,:::1::::<:<:::=::<=",
"q<:===::::::::::::::::=:::::::467,+*,57776796#::::::::::::===-1q",
"q<=:==::::::::::::=<1431::::::377,*:**5767678*::::::=:::::===:<q",
"q-=====:::::::=:::<69007,*:=::467,@::=;676677>*==:::::::=:==:==q",
"q=<===::::=::=:=:=3988805#=::=467,@::==676767>#:::::==:=:====-=q",
"q=<=========:==:=:3766678;====377,@:=:=677667;*======:=:=====<=q",
"qq<===============17667693*===377,@===:777676+=:========:====<qq",
"qq===&============;6677678,%==367,@===4877673o============*===qq",
"qq=-===&==========*176677981**377>O=:4886767#@===========*====qq",
"qq=-%*===*======*=**37766609723763;37096667,o=%=========&=%=-=qq",
"qqq===%=&=*=*==*==%=%377767909977880086777,.%**=====&*=%=%=&=qqq",
"qqq*-%%*=**%*&%=%%=**@>676667897709876766#.%**=**%*%==*===%-&qqq",
"qqqq=*&*===%%=***%**%=O+>47776676677775>oo%*****%=%=*%*=%%==qqqq",
"qqqq%-%%%=%*%%&%%=&%*%*%@O#>1367763,;+oo%**%%%%&*%%%%%==%%=%qqqq",
"qqqqq&=&%&=%%%%%%%%%%%%%%%%Ooo177, Xo@%%%%%%%%%%%%%%%=%%%=&qqqqq",
"qqqqqq=%%%**%%%%%%%%%%%%%%%%%%177:o&%%%%%%%%%%%%%%%%=%%%%=qqqqqq",
"qqqqqq%=%%%%*%%%%%%%%%%%%%%%%%377,o&%%%%%%%%%%%%%%%=*%%%-%qqqqqq",
"qqqqqqq%=%%%=%%%%%$%%@$%%$@%%O177;o%%$$%%%$%%%$%$%*=%%%&%qqqqqqq",
"qqqqqqqq&%$%%**%$%O$%$%$$$$%$O*33oO%$%$$O$%O$%$$%%*%$%%&qqqqqqqq",
"qqqqqqqqq&%$$%=%%$%$$$$$%$$%$%OX o$$$%$%%$$%%$$%=*%$$%&qqqqqqqqq",
"qqqqqqqqqq&%O%$%=%$$$$$$$$$$$%O%$$$$O$O%$O$O$$%=%$$%%&qqqqqqqqqq",
"qqqqqqqqqqq%%$%$%=*%O$$$O$O$O$O$$$$$%O$O$%O$$==$$%$%$qqqqqqqqqqq",
"qqqqqqqqqqqq%&$$$$$=&%$O$O$$O$O$O$$$O$OO$$$==%$$$$&%qqqqqqqqqqqq",
"qqqqqqqqqqqqq$&$$$$$%==%$OOOOOO$OOOOOO$$&&=%$$$$$&$qqqqqqqqqqqqq",
"qqqqqqqqqqqqqq$$&$$$$$$%==&%$$$$$$$%%%==$$$$O$$&%$qqqqqqqqqqqqqq",
"qqqqqqqqqqqqqqqq$$&$$O$OO$&&&&&&==**=%$O$O$$$$$$qqqqqqqqqqqqqqqq",
"qqqqqqqqqqqqqqqqqq$$$$$$OOOOOOOOOO$OOOOO$$$$$$qqqqqqqqqqqqqqqqqq",
"qqqqqqqqqqqqqqqqqqqq$$$$$$OOOOOOOOOOOO$$&$$$qqqqqqqqqqqqqqqqqqqq",
"qqqqqqqqqqqqqqqqqqqqqqq$$O$$OOOOOOOO$$OO$qqqqqqqqqqqqqqqqqqqqqqq",
"qqqqqqqqqqqqqqqqqqqqqqqqqqq$OOOXOOOO$qqqqqqqqqqqqqqqqqqqqqqqqqqq"
};
