/* XPM */
static char *_586180258420[] = {
/* columns rows colors chars-per-pixel */
"64 64 247 2 ",
"   c #010000",
".  c #0C0100",
"X  c #0B0209",
"o  c #070903",
"O  c #130101",
"+  c #1B0101",
"@  c #150B04",
"#  c #1B0509",
"$  c #1D0C0B",
"%  c #170707",
"&  c #180D11",
"*  c #230001",
"=  c #2B0101",
"-  c #2B050B",
";  c #280A07",
":  c #330101",
">  c #3B0101",
",  c #330901",
"<  c #3C0A04",
"1  c #34030A",
"2  c #3C020A",
"3  c #3D0B0A",
"4  c #350B0D",
"5  c #2E160A",
"6  c #440101",
"7  c #4B0101",
"8  c #430A03",
"9  c #42030A",
"0  c #4C020D",
"q  c #450B0C",
"w  c #4A0C0A",
"e  c #4D0B05",
"r  c #530101",
"t  c #5C0101",
"y  c #540A01",
"u  c #5D0B00",
"i  c #530409",
"p  c #560A0A",
"a  c #5E1500",
"s  c #5A1A00",
"d  c #51160B",
"f  c #581409",
"g  c #450112",
"h  c #4A0012",
"j  c #450A11",
"k  c #42001D",
"l  c #550313",
"z  c #5A0715",
"x  c #581811",
"c  c #43140C",
"v  c #640101",
"b  c #6B0201",
"n  c #640B01",
"m  c #6C0B01",
"M  c #65010B",
"N  c #6D050A",
"B  c #650D0B",
"V  c #730201",
"C  c #7A0300",
"Z  c #750C02",
"A  c #74030A",
"S  c #76070B",
"D  c #6C1302",
"F  c #661802",
"G  c #751100",
"H  c #781303",
"J  c #761B05",
"K  c #650419",
"L  c #710212",
"P  c #621612",
"I  c #761714",
"U  c #422014",
"Y  c #69220A",
"T  c #7B2400",
"R  c #792517",
"E  c #640B27",
"W  c #753A2C",
"Q  c #820400",
"!  c #830C00",
"~  c #8D0D00",
"^  c #880507",
"/  c #960906",
"(  c #831200",
")  c #8C1402",
"_  c #841B02",
"`  c #8A190D",
"'  c #8C1B02",
"]  c #931400",
"[  c #9C1300",
"{  c #951C01",
"}  c #9B1F04",
"|  c #96190D",
" . c #830813",
".. c #811C10",
"X. c #9C1C13",
"o. c #A11B02",
"O. c #A6180E",
"+. c #BC1800",
"@. c #A21412",
"#. c #8A2403",
"$. c #882906",
"%. c #912303",
"&. c #9A2400",
"*. c #9C2D03",
"=. c #982B0A",
"-. c #8A320B",
";. c #943200",
":. c #993709",
">. c #8D2910",
",. c #842715",
"<. c #912713",
"1. c #973A15",
"2. c #AC2F00",
"3. c #A72608",
"4. c #B42B05",
"5. c #A93207",
"6. c #B03401",
"7. c #B93C08",
"8. c #A72B15",
"9. c #B2231D",
"0. c #A93514",
"q. c #BD3917",
"w. c #823432",
"e. c #912F26",
"r. c #B83525",
"t. c #B82820",
"y. c #C42800",
"u. c #C73A01",
"i. c #D3380B",
"p. c #DF3A1C",
"a. c #C72321",
"s. c #88401A",
"d. c #A54304",
"f. c #AE4C0F",
"g. c #B84505",
"h. c #BC5708",
"j. c #A84516",
"k. c #B44717",
"l. c #B95517",
"z. c #8A432D",
"x. c #A84120",
"c. c #BE4C22",
"v. c #AA5633",
"b. c #BB5630",
"n. c #BB613F",
"m. c #CA4A0A",
"M. c #DB480B",
"N. c #C7540A",
"B. c #C55F0D",
"V. c #DC4C13",
"C. c #D84817",
"Z. c #CC541A",
"A. c #C95818",
"S. c #DB5219",
"D. c #D45517",
"F. c #C44D15",
"G. c #E0520A",
"H. c #E14C1C",
"J. c #E04914",
"K. c #E5561D",
"L. c #C76704",
"P. c #D06C00",
"I. c #CD6218",
"U. c #C1641E",
"Y. c #DF6C19",
"T. c #D6651B",
"R. c #D7751C",
"E. c #E6651C",
"W. c #E47B1B",
"Q. c #F77B1C",
"!. c #DE4F25",
"~. c #C75C26",
"^. c #D45D25",
"/. c #CE5D3B",
"(. c #CD4B27",
"). c #E65A20",
"_. c #E85427",
"`. c #F25B2B",
"'. c #C46826",
"]. c #DB6524",
"[. c #D46A24",
"{. c #D26B2C",
"}. c #D56527",
"|. c #CE7426",
" X c #DB7929",
".X c #DB6832",
"XX c #CD7930",
"oX c #DB7F34",
"OX c #C76935",
"+X c #E96528",
"@X c #F26827",
"#X c #F26C2C",
"$X c #F5662C",
"%X c #E4742E",
"&X c #E57C2D",
"*X c #E87526",
"=X c #F57726",
"-X c #EC6B32",
";X c #F56A31",
":X c #E47B31",
">X c #E37E3C",
",X c #E97636",
"<X c #FB7938",
"1X c #D76C48",
"2X c #EB7E43",
"3X c #FD7F42",
"4X c #EB6D44",
"5X c #E7851E",
"6X c #DF8323",
"7X c #DC8128",
"8X c #DF8135",
"9X c #DC9627",
"0X c #EC832C",
"qX c #E98728",
"wX c #F18B2D",
"eX c #F18728",
"rX c #EC8434",
"tX c #E5843A",
"yX c #EC843D",
"uX c #E78C31",
"iX c #F38B35",
"pX c #F1813A",
"aX c #FC823E",
"sX c #F78937",
"dX c #EB9738",
"fX c #F69533",
"gX c #FE9236",
"hX c #FD9239",
"jX c #F89639",
"kX c #E9902A",
"lX c #FCA12F",
"zX c #FFA13D",
"xX c #EDA33A",
"cX c #C98D15",
"vX c #EB8741",
"bX c #F78D46",
"nX c #F59246",
"mX c #FD9A45",
"MX c #FD9446",
"NX c #FF9D53",
"BX c #FD9955",
"VX c #FEA341",
"CX c #FEA354",
"ZX c #FFAC55",
"AX c #FFBF53",
"SX c #EBB845",
"DX c #FFA961",
/* pixels */
"                                                  X X .   o       X o                                                           ",
"                                                    .                       o                                                   ",
"                                                              . o                                                               ",
"                                            . X     .   o   O + X       o o                                                     ",
"                                        .   X   o         O * < O o .   o o                                                     ",
"                                              X   X X . @ + 8 P 5 + .       X o     . X .     X                                 ",
"                                      X . X . . . . O % O * f R U ; O X X     O X     X X     .                                 ",
"                                      .     .   . O . . . + y .., + . . X . . O   .   .     .                                   ",
"                          X       . . . O O O O & + O     - q , . X # O O + O . o . . . . . . .             o                   ",
"                        X     . . . . . O O O O . * - @ @ : > * $ # + + % + % @ O O O O . o .                                   ",
"                          . . . O . O O O + + + o * : + * = - + + + * * * * * O + + O O .       o                               ",
"                  X   X . . . . O % O + + + + + @ * = * q : * ; * * = - - * + + + + O O O O O . O O o         o                 ",
"                      . . . O O + + + + + * * * $ + , P w.d # O > > 1 1 * * * - O + + + + * - = * + + .                         ",
"                .   . . O O O O + + # + * * * = * O > ,.e.J > 6 7 7 i q 2 = = - O + + * = : : > 3 3 , + O                       ",
"                  . . . . O O + + + * * * = = = : : y 0.o.:.$.8._ H Z B p 7 6 7 : = : = = = : = e w 3 5 O .                     ",
"                o   . . O O + + * * * * = = 1 1 i Y -.!.y.D.~._.(.8.( b b m J ..p p e > : = * ; 7 6 > = O . X                   ",
"                . . . O O # * # * * + = 7 J c..XqXW.eX6X<X<XuX5XP.0X{.b.l.g.6.&.Z t q * + ; * : = 8 8 : . o X . X               ",
"            . o o . O O + + + * * * * d J _ 5.k. XsXfXR.$X=XrXgXqXqXtXnXsXrX,X4Xx.m 6 : = 4 = 3 , < q = O o o . X               ",
"          .   o . O O O + * * * - = > R <.! _ #.#.D. Xh.M.m.B.W.2X~.8X7XL.L.A.-XtXf.J F 6 q = 1 * - : # . . . .                 ",
"            . . . O O + # * * = 1 : 7 >.8.~ ( #.Z q.>XT.J.J.&X@X0.Z J d.l.tXrXN.*X,X{.0.n B 2 = + * * + O . o o .   .           ",
"      . . . . . O O + + * * = = 4 > y <.8.[ { <.( o..X[.y._.MXT.1X>.r r n 0.vXeXg.].-X^._ J f : * - # + O O O .   X             ",
"        . . . O O + + + * = = = : > r _ 3.o.} ' ` [ ,X&Xi.;XDXg._ H r E l t l.VXZ.m.+X,Xk.D a 6 = * + O + + O     .             ",
"        o O O O + + + * = = = : = > > n | 3.8.~ ! [ ,XqXM.=XCX*.Z b 7 0 z r #.rX<Xm.T.bX{.n u 7 : * + O + + O   . X             ",
"      . . . O O + + + * = = : : : 3 : 7 ` r.q.] | 4.pX*XG.aXZX5.t n n 6 x n V }.aXm.W.MXoXm I z 6 = ; + * + O o                 ",
"        . . O O + + * = = : : > > > 6 9 r n _ 8.| / %XeXV.<XrXA.L t m t K K v OXSXi.p.AXcX+.a.s : = = * # + O . . .   .         ",
"      o . . O O + + * * : : > > 6 > 6 9 r t Z ) ! @.].fXC.D.jXF.L b m v t r G oXdXC.i.nX9X2.@.s , = = * + + O O . . . .         ",
"    . . . @ O O + + * = = : > > 6 9 7 7 7 r v Z ( / {.kXC.C.mX6.V b b N t b d.kXiXC.m.VXuX%.V p : : = * * + + O . . .           ",
"    .   . O O O + * * = : : > > 7 7 7 i i t v Z H V tXqX!.-XhX6.b A V L M #.oXlX#Xu.].CXU.y y 9 : : = * + + O O . . o .         ",
"    . . . O O O * * * = , > > > 7 7 r i p t v N v C BXjX).-XhX7.V  .A v v 1.bXjXV.D.0X2X$.> q g > : = * * + O O . o .           ",
"  .   . . O O O + * * = : > > > 7 7 r r t t v b G 9.nXVX$XS.iX4.V C b V %.~.sXR.S.mXiX1.u 6 : j > : = * * * + O . . . .         ",
"  . . . O O + + * + = = : > > > 7 7 7 r t v v m #.r.,XfX`.K.qXg.&.&.*.k.[.tXrXI.,XgXA.n 0 7 > > > : : = * + + + . . .           ",
".   . . O O O + * ; = = : : > 6 e 6 7 t v v b Z H O.:X5XV.@XqX<X}.,XbXMXqXW.iXNXyXg._ r k l 7 : > : : * * # + + . . .         o ",
"o   . . O O + + * - = : > > 6 6 7 r r t t v b b C 9.^.hXM.).gXZ.4.q.C.+X#X#XS.D.I S u r 7 6 6 > : : : = * * + O . . . .         ",
"      . O O O + * * = = : > > 6 7 7 7 t v v b b C 9.}.gXp.K.jXZ.~ ~ ] { %.{ ' ! m v r r 7 7 > > : : = = * # + # O O . .         ",
"      . O O O + * * * : : > > 6 7 7 r r t v b b C O.~.hXC.).iXA. .^ V V b b b v t t r 7 7 8 6 > : : : * * + + + . . .           ",
"  . . . . O + O * * = - : > > 6 7 7 r r t v v b Z / A.iX_._.&Xm. .A A V N N M M t t t r 7 7 6 : : : = = * + # O O . . .         ",
"    . . . O + + * * * - : > > > 6 7 7 r t t v b C ^ A.iX`.@X&X6.C V V V V b v v u t r r 7 6 6 > : : = * * + O O O . . .         ",
"      . O O O + # * * = : : > > 6 7 i r t v v b Z ^ {.qX`.;X0X2.Q Q C V b b v v t t r 7 6 6 6 > : = = = + + + O . . . .       o ",
"      . . O O + + * * = : : > > 9 7 7 r t t v v b | >X5XK.$XiX6.C V V b v t t t r r i 7 6 6 6 > : : = * + O O O O . .           ",
"      . . O + + + * * = : : > > 6 6 7 i r M v v b X.yX5XV.@XiX6.b b M v M t r t r r r 7 7 6 > 6 = = * * * + O O O . . .     o   ",
"    . . . . O O + * * = = : : > h 7 6 y r r u t M #.rXbXK.Q.sX=.b b b v v t r t r r 7 6 6 > > > = = * * + + O O .   .           ",
"      . . . O O + * * * = : : : > 6 6 7 e i r t m ;.nXMX=XQ.sX=.b b v v t t t r 7 7 7 6 6 > : : = = = * + O O O . .       .     ",
"        . . . O + + * * = : : : : > 8 : 9 l 7 m b.I.AX8XA.W.MXk.v v v t t r r r 7 7 7 6 > > > : = * * + + + O . . X             ",
"      . . . O . O + + * * = : : > : q : h z 7 j.,XuXZX|.h.N.3X6.t t t t r r 7 r 7 7 6 > > : : = ; * * + + O O . X               ",
"      .   . O . O + + * * = = : 2 : 9 > i n F |.Y. XCXjX&XD.,X5.r t r r r 7 7 7 9 6 6 > > : = = * * + + + . . . o               ",
"          . . . O O + + * = = - 2 : > 6 p u T XXg.j.b.7X[.c./.*.r 7 7 7 7 7 6 7 6 6 > > : = = = * * + + O . . . o               ",
"          . . . O O + + * * = = : = : < 8 7 F s.J D D f.;.Z ,.Y 6 7 7 7 6 6 6 9 6 > > : : = * = * # + O . . .   .               ",
"          . . . O O O + * * * = = : = , = - q > 6 g i v.-.t h : 6 6 6 6 6 6 6 6 > > > : = = * * + * + O O . .     X             ",
"                . O O O O + + * = = - : : : : > 2 e u $.b.r > j 6 6 > > > > > > : : = = * * * * + O O O O . . .                 ",
"                . . O O + O + + = = = = 1 : : : = e F 1.n.7 > 2 > > > > > : > : : : = = * * * # O O O . . . .                   ",
"                . . . O O O + + * * * = = : : : = 8 y ,.v.7 > : > : > : : : : : = = = * * * # + O O O . . .   X                 ",
"o                 . . . O O + O * * * * * = = = 1 : > s z.f < - : : : = : : : = = * * * + + + O O . O .     X                   ",
"                  .   . . O O O + + * * * * * = - = : d W d 2 * : = = = = = * * * * * + + O O O . . . .   . X                   ",
"                      . . . O O O O + + + * * * = = , < c , = - = * = * * * * * + + + + O O O . . . .   X                       ",
"                        . . . . O O O + + + + * - = * * + + * - * * * * + * + + + + + O O . O . . .   .                         ",
"                          . . . O O O O + + + + * # * * * ; + + # * * + * + + + + + O O O . o . . .           X                 ",
"                                . . . O . O O O + + + + O + + + + + + O O O O O O O O . . o                                     ",
"                                . . . . O . O O O O O O + + O + O O O O O O O @ O O . . .   o                                   ",
"                                . . . . . . . . O O O O O O O O O O O O O O . . O . . . . .                                     ",
"                                  .   o . . . . O . O . O . O O O O O . o . . . . . .                                           ",
"                                            . . . . . . . O . . . . . . . . .     o   .                                         ",
"                                            X       .     .   . .   . .                                                         ",
"                                                          o       . .                                                           ",
"                                                                .                                                               "
};
